<svg width="110" height="22" viewBox="0 0 110 22" fill="none" xmlns="http://www.w3.org/2000/svg">
<g clip-path="url(#clip0_2:2)">
<path d="M42.6748 13.79C42.5531 15.473 41.93 16.7979 40.8057 17.7646C39.6885 18.7314 38.2132 19.2148 36.3799 19.2148C34.3747 19.2148 32.7956 18.5417 31.6426 17.1953C30.4967 15.8418 29.9238 13.987 29.9238 11.6309V10.6748C29.9238 9.1709 30.1888 7.84603 30.7188 6.7002C31.2487 5.55436 32.0042 4.67708 32.9854 4.06836C33.9736 3.45247 35.1195 3.14453 36.4229 3.14453C38.2275 3.14453 39.6813 3.62793 40.7842 4.59473C41.887 5.56152 42.5244 6.91862 42.6963 8.66602H39.4736C39.3949 7.65625 39.112 6.92578 38.625 6.47461C38.1452 6.01628 37.4111 5.78711 36.4229 5.78711C35.3486 5.78711 34.543 6.17383 34.0059 6.94727C33.4759 7.71354 33.2038 8.90592 33.1895 10.5244V11.7061C33.1895 13.3962 33.4437 14.6315 33.9521 15.4121C34.4678 16.1927 35.277 16.583 36.3799 16.583C37.3753 16.583 38.1165 16.3574 38.6035 15.9062C39.0977 15.4479 39.3805 14.7425 39.4521 13.79H42.6748ZM50.102 3.35938L54.1195 14.7031L58.1156 3.35938H62.348V19H59.1146V14.7246L59.4369 7.34473L55.2152 19H53.0023L48.7914 7.35547L49.1137 14.7246V19H45.891V3.35938H50.102ZM74.3729 14.8965C74.3729 14.2878 74.158 13.8223 73.7283 13.5C73.2986 13.1706 72.5252 12.8268 71.408 12.4688C70.2908 12.1035 69.4064 11.7454 68.7547 11.3945C66.9786 10.4349 66.0906 9.14225 66.0906 7.5166C66.0906 6.67155 66.327 5.9196 66.7996 5.26074C67.2794 4.59473 67.9633 4.07552 68.8514 3.70312C69.7466 3.33073 70.7492 3.14453 71.8592 3.14453C72.9764 3.14453 73.9718 3.34863 74.8455 3.75684C75.7192 4.15788 76.396 4.72721 76.8758 5.46484C77.3628 6.20247 77.6063 7.04036 77.6063 7.97852H74.3836C74.3836 7.26237 74.158 6.70736 73.7068 6.31348C73.2557 5.91243 72.6219 5.71191 71.8055 5.71191C71.0177 5.71191 70.4054 5.88021 69.9686 6.2168C69.5317 6.54622 69.3133 6.98307 69.3133 7.52734C69.3133 8.03581 69.5675 8.46191 70.076 8.80566C70.5916 9.14941 71.3471 9.47168 72.3426 9.77246C74.1759 10.3239 75.5115 11.0078 76.3494 11.8242C77.1873 12.6406 77.6063 13.6576 77.6063 14.875C77.6063 16.2285 77.0942 17.292 76.0701 18.0654C75.046 18.8317 73.6674 19.2148 71.9344 19.2148C70.7313 19.2148 69.6355 18.9964 68.6473 18.5596C67.659 18.1156 66.9035 17.5104 66.3807 16.7441C65.865 15.9779 65.6072 15.0898 65.6072 14.0801H68.8406C68.8406 15.806 69.8719 16.6689 71.9344 16.6689C72.7007 16.6689 73.2986 16.515 73.7283 16.207C74.158 15.8919 74.3729 15.4551 74.3729 14.8965Z" fill="black"/>
<path opacity="0.519857" d="M19 0H0V15H19V0Z" fill="#24D5D8"/>
<path d="M24 4H4V21H24V4Z" fill="#33C92D"/>
</g>
<defs>
<clipPath id="clip0_2:2">
<rect width="110" height="22" fill="white"/>
</clipPath>
</defs>
</svg>
